<svg width="17" height="17" viewBox="0 0 17 17" fill="none" xmlns="http://www.w3.org/2000/svg">
<g clip-path="url(#clip0)">
<rect width="17" height="17" fill="#CDF2FC"/>
<path d="M11.2898 9.38591C12.9549 9.38591 14.3046 8.03615 14.3046 6.37115C14.3046 4.70614 12.9549 3.35638 11.2898 3.35638C9.62484 3.35638 8.27508 4.70614 8.27508 6.37115C8.27508 8.03615 9.62484 9.38591 11.2898 9.38591Z" fill="#0E397C"/>
<path d="M11.2898 10.1588C15.1834 10.1588 18.4783 13.0756 19.5796 17.0939L3 17.0939C4.10126 13.0756 7.39622 10.1588 11.2898 10.1588Z" fill="#0E397C"/>
<path d="M11.2898 29.9201C11.0487 29.9201 10.8099 29.909 10.5737 29.887L12.0058 29.887C11.7697 29.909 11.5309 29.9201 11.2898 29.9201Z" fill="#0E397C"/>
</g>
<defs>
<clipPath id="clip0">
<rect width="17" height="17" fill="white"/>
</clipPath>
</defs>
</svg>
